<svg width="76" height="76" viewBox="0 0 76 76" fill="none" xmlns="http://www.w3.org/2000/svg">
    <circle cx="38" cy="38" r="37" fill="black" stroke="black" stroke-width="2"/>
    <path d="M28.3233 35.6076C28.1112 35.9714 28.2247 36.4379 28.5804 36.6635L37.9839 42.6292C38.24 42.7918 38.567 42.7917 38.8232 42.6292L48.226 36.6635C48.5812 36.4382 48.695 35.9726 48.4839 35.6089L39.2161 19.64L39.2159 19.6398L39.1014 19.4426C38.9613 19.2014 38.7036 19.0529 38.4247 19.0526C38.1458 19.0524 37.8878 19.2005 37.7473 19.4414L28.3233 35.6076Z" stroke="white" stroke-width="1.5666" stroke-miterlimit="10" stroke-linejoin="round"/>
    <path d="M29.417 40.7442C29.103 40.5466 28.6934 40.5965 28.436 40.8637C28.1785 41.1309 28.1438 41.542 28.3529 41.8485L37.7564 55.6379C37.9023 55.8518 38.1445 55.9798 38.4035 55.9798C38.6625 55.9798 38.9048 55.8518 39.0507 55.6378L48.4536 41.8485C48.6626 41.542 48.6279 41.1308 48.3704 40.8637C48.113 40.5965 47.7034 40.5466 47.3893 40.7442L38.4035 46.3965L29.417 40.7442Z" stroke="white" stroke-width="1.5666" stroke-miterlimit="10" stroke-linejoin="round"/>
</svg>
